<svg width="222" height="222" viewBox="0 0 222 222" fill="none" xmlns="http://www.w3.org/2000/svg">
<circle cx="114" cy="114" r="95" fill="#FF9142"/>
<path d="M87.5256 149.36C87.5256 148.56 87.2456 136.76 86.6856 113.96C86.3656 98.2 86.6056 85.4 87.4056 75.56C87.5656 73.88 88.2456 72.52 89.4456 71.48C90.7256 70.44 92.2056 69.96 93.8856 70.04C94.6856 70.12 95.4456 70.36 96.1656 70.76C105.526 68.84 113.966 68.4 121.486 69.44C134.686 71.28 143.246 77.28 147.166 87.44C148.686 92.32 149.246 96.32 148.846 99.44C148.526 102.48 147.606 105.24 146.086 107.72C144.646 110.12 142.766 112.08 140.446 113.6C138.206 115.12 135.926 116.36 133.606 117.32C131.286 118.2 128.806 118.88 126.166 119.36C118.006 121.04 108.926 121.32 98.9256 120.2C99.3256 135.56 99.5256 145.28 99.5256 149.36C99.5256 151.04 98.9256 152.48 97.7256 153.68C96.6056 154.8 95.2056 155.36 93.5256 155.36C91.8456 155.36 90.4056 154.8 89.2056 153.68C88.0856 152.48 87.5256 151.04 87.5256 149.36ZM98.6856 108.32C99.1656 108.24 99.6856 108.2 100.246 108.2C108.966 109.24 116.806 109.04 123.766 107.6C132.006 105.92 136.406 102.72 136.966 98C137.126 96.88 136.766 94.8 135.886 91.76C133.726 86 128.406 82.52 119.926 81.32C113.846 80.52 106.886 80.88 99.0456 82.4C98.6456 89.44 98.5256 98.08 98.6856 108.32Z" fill="#FFFEFE"/>
</svg>
