<?xml version="1.0" encoding="utf-8"?>
<!-- Generator: Adobe Illustrator 12.0.0, SVG Export Plug-In . SVG Version: 6.00 Build 51448)  -->
<!DOCTYPE svg PUBLIC "-//W3C//DTD SVG 1.1//EN" "http://www.w3.org/Graphics/SVG/1.1/DTD/svg11.dtd" [
	<!ENTITY ns_svg "http://www.w3.org/2000/svg">
	<!ENTITY ns_xlink "http://www.w3.org/1999/xlink">
]>
<svg  version="1.1" id="Layer_1" xmlns="&ns_svg;" xmlns:xlink="&ns_xlink;" width="377.583" height="326.068"
	 viewBox="0 0 377.583 326.068" overflow="visible" enable-background="new 0 0 377.583 326.068" xml:space="preserve">
<circle fill="#FFFFFF" cx="188.792" cy="152.635" r="152.635"/>
<g>
	<g>
		<path fill="#1FB24F" d="M375.032,246.601c-0.149-0.026-3.142-0.506-8.367-0.887c1.998-3.259,4.243-7.671,4.782-11.813
			c-121.947-34.963-182.651,51.006-182.651,51.006S128.09,198.938,6.14,233.901c0.542,4.142,2.783,8.551,4.787,11.813
			c-5.228,0.381-8.219,0.86-8.367,0.887c-1.673,0.281-2.802,1.866-2.516,3.539c0.285,1.672,1.881,2.802,3.542,2.511
			c0.764-0.123,76.869-12.314,147.684,40.292c16.242,11.468,15.699,16.77,15.383,19.929c-0.748,7.326,2.668,9.397,21.555,13.084
			l0.587,0.113l0.583-0.113c18.883-3.687,22.306-5.758,21.559-13.084c-0.323-3.159-0.861-8.461,15.435-19.977
			c70.652-52.486,146.869-40.367,147.637-40.244c1.649,0.288,3.253-0.841,3.53-2.511
			C377.826,248.467,376.699,246.882,375.032,246.601z"/>
		<path fill="#1183C6" d="M258.118,174.977l6.104,44.751c-44.035,12.66-75.427,42.387-75.427,42.387s-31.392-29.727-75.431-42.387
			l6.103-44.751l69.328,40.279L258.118,174.977z M73.076,136.983l115.72,67.233l122.218-71.01L188.795,83.112L73.538,130.353
			c-1.126-2.74-3.82-4.67-6.962-4.67c-4.16,0-7.526,3.368-7.526,7.523c0,2.703,1.432,5.068,3.576,6.396l-8.803,72.691
			c0,0,3.994,6.606,12.753,6.606c8.758,0,12.749-6.606,12.749-6.606l-8.799-72.691C71.577,138.95,72.453,138.051,73.076,136.983z"/>
		<path fill="#EDB81D" d="M188.792,19.323l6.792,20.896h21.962l-17.766,12.91l6.783,20.896l-17.771-12.91l-17.766,12.91
			l6.782-20.896l-17.771-12.91h21.962L188.792,19.323z M113.222,61.455H97.685l12.566,9.133l-4.797,14.784l12.573-9.137
			l12.572,9.137l-4.803-14.784l12.572-9.133H122.83l-4.803-14.782L113.222,61.455z M254.755,61.455h-15.536l12.567,9.133
			l-4.801,14.784l12.577-9.137l12.566,9.137l-4.797-14.784l12.565-9.133h-15.537l-4.798-14.782L254.755,61.455z"/>
	</g>
</g>
</svg>
